<?xml version="1.0" encoding="utf-8"?>
<!-- Generator: Adobe Illustrator 27.3.1, SVG Export Plug-In . SVG Version: 6.00 Build 0)  -->
<svg version="1.1" id="Layer_1" xmlns="http://www.w3.org/2000/svg" xmlns:xlink="http://www.w3.org/1999/xlink" x="0px" y="0px"
	 viewBox="0 0 148 31" style="enable-background:new 0 0 148 31;" xml:space="preserve">
<style type="text/css">
	.st0{fill:#FFFFFF;}
</style>
<g id="Layer_2_00000142157749189061476750000004607188328867472314_">
	<g id="Layer_1-2">
		<g id="Logo">
			<g id="logo-2">
				<path id="border" class="st0" d="M53.3,31c-14.2,0-27.5-1.6-37.5-4.5S0,19.7,0,15.5S5.6,7.4,15.8,4.4S39.1,0,53.3,0
					s27.5,1.6,37.5,4.5s15.7,6.8,15.7,11.1s-5.6,8.1-15.7,11.1S67.5,31,53.3,31z M53.3,1C39.5,1,26.5,2.5,16.8,5.3
					c-9.5,2.7-15,6.5-15,10.2S7.2,23,16.7,25.7c9.8,2.8,22.7,4.3,36.5,4.3s26.8-1.5,36.5-4.3c9.5-2.7,14.9-6.5,14.9-10.2
					S99.3,8,89.9,5.3C80.1,2.5,67.1,1,53.3,1z"/>
				<path id="V" class="st0" d="M19.4,22.3c-2.3-1.1-4.2-2.9-5.4-5.1c-1.3-2.5-1.9-5.3-1.8-8.2h1.1v0.1c-0.1,2.3,0.3,4.5,1.2,6.6
					c0.8,1.8,2.1,3.4,3.7,4.6V9.1h1.2L19.4,22.3z"/>
				<path id="I" class="st0" d="M21.4,22.3V9.1h1.2v13.3h-1.2V22.3z"/>
				<path id="A" class="st0" d="M31.7,14.3c-0.7-2-1.9-3.9-3.3-5.4c-1.5,1.5-2.6,3.4-3.4,5.4c-0.7,2.3-1.1,4.6-1.1,7
					c0,0.3,0,0.5,0,0.6s0,0.3,0,0.4H25c0-1,0-1.9,0.1-2.7c0-0.8,0.1-1.5,0.2-2.2l0.2-1.2c0.2-1,0.6-2,1-3c0.5-1,1.1-1.9,1.8-2.8
					c0.7,0.9,1.3,1.9,1.8,2.9c0.5,0.9,0.8,1.9,1,2.9l0.2,1.2c0.1,0.5,0.1,1.2,0.2,1.9s0.1,1.5,0.1,2.5v0.5h1.1c0-0.1,0-0.3,0-0.4
					v-0.6C32.8,18.9,32.4,16.6,31.7,14.3z"/>
				<path id="A_dot" class="st0" d="M29.7,16.3c0,0.7-0.6,1.4-1.3,1.4S27,17.1,27,16.4c0-0.7,0.6-1.4,1.3-1.4l0,0
					C29.1,15,29.7,15.6,29.7,16.3z"/>
				<path id="T" class="st0" d="M38.9,10.1c0.5-0.4,1.1-0.7,1.7-0.9c1.3-0.4,2.6-0.4,3.9,0c0.6,0.2,1.2,0.5,1.7,0.9l-0.5,1
					c-0.4-0.3-0.8-0.5-1.2-0.7s-0.9-0.3-1.3-0.4v12.3H42V10.1c-0.9,0.1-1.8,0.5-2.5,1L38.9,10.1z"/>
				<path id="R" class="st0" d="M48.7,22.3h-1.2V9.1h0.1c1.4-0.1,2.8,0.4,3.8,1.4c1,0.9,1.5,2.1,1.5,3.4c0,0.8-0.2,1.6-0.6,2.3
					c-0.5,0.8-1.2,1.5-2,2.1c0.2,0.6,0.6,1.2,1,1.7c0.5,0.5,1.1,0.9,1.7,1.2v1.4c-0.6-0.2-1.1-0.5-1.7-0.9c-0.5-0.3-0.9-0.7-1.2-1.2
					c-0.4-0.5-0.7-1.1-0.9-1.6c-0.2-0.4-0.3-0.9-0.4-1.3c0-0.1,0.1-0.1,0.4-0.3c0.3-0.1,0.5-0.2,0.7-0.4c0.5-0.4,1-0.8,1.3-1.4
					c0.3-0.5,0.4-1.1,0.4-1.6c0-1.7-1.3-3.2-3-3.4L48.7,22.3z"/>
				<path id="A-2" class="st0" d="M54,22.3c0-0.1,0-0.2,0-0.4v-0.6c0-2.4,0.3-4.7,1.1-7c0.7-2,1.8-3.9,3.3-5.5
					c1.5,1.5,2.6,3.4,3.3,5.4c0.7,2.3,1.1,4.6,1.1,7v0.6c0,0.1,0,0.3,0,0.4h-1.1v-0.5c0-0.9,0-1.8-0.1-2.5c0-0.7-0.1-1.3-0.2-1.9h-6
					c-0.1,0.6-0.1,1.4-0.2,2.2s0,1.7,0,2.7L54,22.3z M55.6,16.3h5.7c-0.2-1-0.6-2-1-2.9c-0.5-1-1.1-2-1.8-2.9
					c-0.7,0.9-1.3,1.8-1.8,2.8C56.1,14.3,55.8,15.3,55.6,16.3L55.6,16.3z"/>
				<path id="D" class="st0" d="M64,9.1h0.2c1.9-0.1,3.8,0.5,5.3,1.8c1.3,1.2,2.1,3,2,4.8c0.1,1.8-0.7,3.6-2,4.8
					c-1.4,1.3-3.3,1.9-5.2,1.8H64V9.1z M65.2,10.3v10.8c1.4,0,2.7-0.6,3.7-1.6c0.9-1.1,1.4-2.4,1.4-3.8c0.1-1.4-0.4-2.8-1.4-3.9
					C67.9,10.8,66.6,10.3,65.2,10.3L65.2,10.3z"/>
				<path id="I-2" class="st0" d="M72.8,22.3V9.1H74v13.3h-1.2V22.3z"/>
				<path id="N" class="st0" d="M75.7,22.3V8.9c1.5,0.7,2.9,1.7,4,2.9c1,1.1,1.8,2.5,2.3,4L81.9,9H83v13.3h-1.2c0-0.1,0-0.2,0-0.4
					v-0.6c0-2.1-0.4-4.2-1.2-6.1c-0.8-1.7-2.1-3.3-3.7-4.4v11.3h-1.2V22.3z"/>
				<path id="G" class="st0" d="M93.8,15.4v6.3c-0.5,0.2-0.9,0.4-1.4,0.5s-0.9,0.2-1.4,0.2c-1.8,0-3.6-0.7-4.8-2
					c-1.3-1.3-2-3.1-1.9-4.9c-0.1-1.8,0.6-3.6,1.9-4.9s3-2,4.9-2c0.6,0,1.2,0.1,1.7,0.2C93.4,9,94,9.2,94.5,9.5V11
					c-0.5-0.4-1.1-0.8-1.7-1s-1.2-0.3-1.9-0.3c-1.5,0-2.9,0.6-3.8,1.7c-1,1.1-1.6,2.6-1.6,4.1c-0.1,1.5,0.5,3,1.6,4.1
					c1,1.1,2.5,1.7,4,1.6c0.2,0,0.4,0,0.7-0.1l0.9-0.2v-5.6h1.1V15.4z"/>
			</g>
			<path class="st0" d="M107.4,20.6c0-1.2,1-2.2,2.2-2.2c0.9,0,1.6,0.7,1.6,1.5V20c0,1.2-0.9,2.2-2.1,2.2c-0.8,0.1-1.6-0.6-1.6-1.4
				C107.4,20.8,107.4,20.7,107.4,20.6z"/>
			<path class="st0" d="M113.2,18.2c-0.1-3.4,2.6-6.2,5.9-6.3l0,0c1,0,2,0.4,2.7,1.2L120,15c-0.3-0.3-0.7-0.5-1.2-0.6
				c-1.4,0-2.5,1.7-2.5,3.7c0,1,0.5,1.6,1.4,1.6c0.5,0,1-0.2,1.4-0.6l1.3,1.9c-1,0.8-2.1,1.2-3.4,1.1c-2.1,0.1-3.9-1.6-3.9-3.7
				C113.1,18.4,113.1,18.3,113.2,18.2z"/>
			<path class="st0" d="M121.8,18.2c-0.1-3.3,2.4-6.1,5.6-6.3c2.1-0.1,3.9,1.5,4,3.6c0,0.2,0,0.3,0,0.5c0.1,3.3-2.4,6-5.6,6.2
				c-2.1,0.1-3.9-1.5-4-3.6C121.7,18.5,121.7,18.4,121.8,18.2z M128.1,16.1c0-1-0.4-1.6-1.1-1.6c-1.1,0-2,1.5-2,3.7
				c0,1,0.4,1.6,1.1,1.6C127.2,19.8,128.1,18.2,128.1,16.1z"/>
			<path class="st0" d="M133.9,12.4h2.6v1.3h0.1c0.8-0.9,2-1.4,3.2-1.5c1.1-0.1,2.1,0.6,2.3,1.7c0.9-0.9,2-1.5,3.3-1.7
				c1.6,0,2.3,0.9,2.3,2.6c0,0.5-0.1,1-0.2,1.4l-1.2,6.1h-3.1l1.1-5.7c0.1-0.3,0.1-0.6,0.2-0.9c0-0.4-0.2-0.8-0.7-0.8
				c-0.1,0-0.1,0-0.2,0c-0.4,0-0.9,0.4-1.6,1.1l-1.3,6.3h-3.2l1.1-5.7c0.1-0.3,0.1-0.6,0.2-0.9c0.1-0.4-0.2-0.8-0.6-0.8h-0.1
				c-0.4,0-0.9,0.4-1.7,1.1l-1.2,6.3H132L133.9,12.4z"/>
		</g>
	</g>
</g>
</svg>
