<?xml version="1.0" encoding="UTF-8"?><svg id="Layer_2" xmlns="http://www.w3.org/2000/svg" viewBox="0 0 195.7 35.44"><defs><style>.cls-1{opacity:.5;}.cls-2{fill:#333;}.cls-2,.cls-3{stroke-width:0px;}.cls-3{fill:#50b848;}</style></defs><g id="Layer_1-2"><polygon class="cls-3" points="13.97 20.66 13.97 20.66 11.65 19.5 11.65 21.82 13.97 22.98 16.3 24.14 16.3 21.81 13.98 20.66 13.97 20.66"/><polygon class="cls-2" points="2.32 3.49 2.32 3.48 0 2.32 0 4.65 2.32 5.81 4.65 6.97 4.65 4.64 2.33 3.49 2.32 3.49"/><polygon class="cls-2" points="0 9.43 2.32 10.59 2.33 8.27 0 7.1 0 9.43"/><polygon class="cls-2" points="9.29 4.65 9.29 2.32 6.98 1.16 6.97 1.16 6.97 1.16 4.65 0 4.65 2.33 6.97 3.49 9.29 4.65"/><path class="cls-3" d="m25.6,5.93h-.02s-2.32-1.17-2.32-1.17l-2.31-1.15h0s-2.32-1.16-2.32-1.16l-2.32-1.16-2.32,1.16-2.32,1.16h0s0,0,0,0l-2.31,1.15-2.32,1.16h0s-.02,0-.02,0l-2.31,1.15v16.24l2.32,1.17.05.03,2.27,1.14,2.32,1.17h.03s2.3,1.17,2.3,1.17l2.32,1.17,2.32-1.17,2.3-1.15h.03s2.32-1.18,2.32-1.18l2.27-1.14.05-.03,2.32-1.17V7.08l-2.31-1.15Zm-13.95,0l2.32-1.16,2.32-1.16,2.32,1.16,2.32,1.16,4.65,2.32-9.29,4.65-9.29-4.65,4.65-2.32Zm13.94,13.94v2.32h-.13l-4.52,2.26v.06h-.13l-2.19,1.1-2.32,1.16-2.32-1.16-2.19-1.1h-.13v-.06l-4.52-2.26h-.13v-2.32h-.02.02v-9.32l.05.03,2.27,1.14,2.32,1.17h.03s2.3,1.17,2.3,1.17l2.32,1.17,2.32-1.17,2.3-1.15h.03s2.32-1.18,2.32-1.18l2.27-1.14.05-.03v9.31h.02s-.02,0-.02,0Z"/><path class="cls-2" d="m50.17,5.7l-2.68,17.54h-4.69l-1.58-11.15-1.43,11.15h-4.69l-2.93-17.54h4.71l1.38,9.27,1.45-9.27h3.83l1.48,9.67,1.33-9.67h3.81Z"/><path class="cls-2" d="m54.83,17.81v2.63c0,.48.15.8.65.8s.65-.33.65-.8v-1.55h4.21v1.45c0,2.51-2.18,3.16-4.89,3.16s-4.86-.65-4.86-3.16v-6.97c0-2.51,2.08-3.16,4.86-3.16s4.89.65,4.89,3.16v4.44h-5.51Zm0-4.54v2.53h1.3v-2.53c0-.48-.15-.8-.65-.8s-.65.33-.65.8Z"/><path class="cls-2" d="m61.72,20.69v-3.36h4.49v2.91c0,.55.18.8.9.8.63,0,.85-.25.85-.8v-3.33c0-.55-.3-.93-.85-.93h-2.26c-2,0-3.13-.98-3.13-2.26v-5.24c0-2.51,2.83-3.08,5.34-3.08,2.73,0,5.44.58,5.44,2.83v3.63h-4.49v-3.16c0-.55-.23-.8-.95-.8-.63,0-.85.25-.85.8v3.26c0,.55.3.93.85.93h2.31c2,0,3.13.98,3.13,2.26v5.29c0,2.51-2.66,3.08-5.39,3.08-2.51,0-5.39-.58-5.39-2.83Z"/><path class="cls-2" d="m73.85,20.34v-6.97c0-2.51,2.2-3.16,4.99-3.16s5.01.65,5.01,3.16v6.97c0,2.51-2.31,3.16-5.01,3.16s-4.99-.65-4.99-3.16Zm5.79.1v-7.17c0-.48-.28-.8-.78-.8s-.78.33-.78.8v7.17c0,.48.28.8.78.8s.78-.33.78-.8Z"/><path class="cls-2" d="m85.21,5.7h4.26v17.54h-4.26V5.7Z"/><path class="cls-2" d="m100.99,10.62l-2.76,12.63h-5.09l-2.76-12.63h4.16l1.38,7.89,1.38-7.89h3.68Z"/><path class="cls-2" d="m105.86,17.81v2.63c0,.48.15.8.65.8s.65-.33.65-.8v-1.55h4.21v1.45c0,2.51-2.18,3.16-4.89,3.16s-4.86-.65-4.86-3.16v-6.97c0-2.51,2.08-3.16,4.86-3.16s4.89.65,4.89,3.16v4.44h-5.51Zm0-4.54v2.53h1.3v-2.53c0-.48-.15-.8-.65-.8s-.65.33-.65.8Z"/><path class="cls-3" d="m118.23,17.19h-.7v5.86h-4.49V5.52h5.84c2.71,0,4.94.4,4.94,2.91v5.61c0,1.2-.55,1.95-1.45,2.46l2.13,6.57h-4.44l-1.83-5.86Zm-.7-2.51h1.13c.5,0,.68-.33.68-.8v-5.06c0-.48-.18-.8-.68-.8h-1.13v6.67Z"/><path class="cls-3" d="m130.34,8.7v3.76h3.71v3.13h-3.71v4.29h3.71v3.18h-8.19V5.52h8.19v3.18h-3.71Z"/><path class="cls-3" d="m145.93,8.7h-3.16v14.36h-4.49v-14.36h-3.16v-3.18h10.8v3.18Z"/><path class="cls-3" d="m147.1,20.15V5.52h4.49v14.48c0,.48.18.8.9.8s.9-.33.9-.8V5.52h4.49v14.63c0,2.51-2.48,3.16-5.41,3.16s-5.36-.65-5.36-3.16Z"/><path class="cls-3" d="m164.88,17.19h-.7v5.86h-4.49V5.52h5.84c2.71,0,4.94.4,4.94,2.91v5.61c0,1.2-.55,1.95-1.45,2.46l2.13,6.57h-4.44l-1.83-5.86Zm-.7-2.51h1.13c.5,0,.68-.33.68-.8v-5.06c0-.48-.18-.8-.68-.8h-1.13v6.67Z"/><path class="cls-3" d="m183.23,5.52v17.54h-4.16l-2.88-8.6v8.6h-3.68V5.52h3.98l3.06,9.2V5.52h3.68Z"/><path class="cls-3" d="m184.92,20.5v-3.36h4.49v2.91c0,.55.18.8.9.8.63,0,.85-.25.85-.8v-3.33c0-.55-.3-.93-.85-.93h-2.26c-2,0-3.13-.98-3.13-2.26v-5.24c0-2.51,2.83-3.08,5.34-3.08,2.73,0,5.44.58,5.44,2.83v3.63h-4.49v-3.16c0-.55-.22-.8-.95-.8-.63,0-.85.25-.85.8v3.26c0,.55.3.93.85.93h2.31c2,0,3.13.98,3.13,2.26v5.29c0,2.51-2.66,3.08-5.39,3.08-2.51,0-5.39-.58-5.39-2.83Z"/><g class="cls-1"><path class="cls-2" d="m85.98,24.81c.45-.1,1.1-.17,1.75-.17.78,0,1.53.19,1.98.62.38.35.59.83.59,1.46,0,.9-.44,1.66-.97,2.1-.62.53-1.54.77-2.45.77-.3,0-.57-.02-.82-.06l-.62,3.24h-.98l1.52-7.96Zm.23,3.89c.28.06.51.08.81.08,1.36,0,2.28-.85,2.28-1.98,0-.96-.69-1.35-1.61-1.35-.39,0-.69.03-.87.09l-.6,3.17Z"/><path class="cls-2" d="m95.8,29.26c0,1.79-1.27,3.65-3.22,3.65-1.45,0-2.26-1.08-2.26-2.38,0-1.92,1.33-3.68,3.22-3.68,1.56,0,2.27,1.18,2.27,2.41Zm-4.46,1.23c0,.94.52,1.63,1.38,1.63,1.17,0,2.06-1.52,2.06-2.87,0-.68-.31-1.62-1.35-1.62-1.25,0-2.08,1.53-2.08,2.85Z"/><path class="cls-2" d="m97.77,26.98l.21,3.26c.04.72.04,1.09.03,1.56h.03c.14-.38.35-.88.64-1.46l1.73-3.37h.87l.37,3.3c.06.64.1,1.13.09,1.52h.03c.15-.47.31-.92.55-1.47l1.57-3.35h1.01l-2.87,5.8h-.92l-.38-3.15c-.06-.54-.09-1.03-.08-1.54h-.02c-.24.56-.41,1-.67,1.51l-1.66,3.18h-.93l-.54-5.8h.98Z"/><path class="cls-2" d="m108.88,32.44c-.44.25-1.14.46-1.92.46-1.54,0-2.21-1.05-2.21-2.33,0-1.75,1.3-3.72,3.16-3.72,1.1,0,1.7.66,1.7,1.49,0,1.52-1.72,1.92-3.86,1.88-.05.25-.01.79.12,1.1.23.52.69.78,1.29.78.69,0,1.21-.21,1.56-.4l.15.74Zm-1.1-4.83c-.95,0-1.66.92-1.91,1.83,1.56.02,2.79-.19,2.79-1.09,0-.48-.36-.74-.88-.74Z"/><path class="cls-2" d="m110.03,32.78l.71-3.74c.14-.76.23-1.53.29-2.06h.88c-.05.4-.09.81-.16,1.26h.03c.38-.79,1-1.39,1.78-1.39.09,0,.21,0,.28.02l-.19.98c-.07-.01-.16-.02-.27-.02-.86,0-1.63,1.04-1.88,2.39l-.48,2.56h-.99Z"/><path class="cls-2" d="m117.75,32.44c-.44.25-1.14.46-1.92.46-1.54,0-2.21-1.05-2.21-2.33,0-1.75,1.3-3.72,3.16-3.72,1.1,0,1.7.66,1.7,1.49,0,1.52-1.72,1.92-3.86,1.88-.05.25-.01.79.12,1.1.23.52.69.78,1.29.78.69,0,1.21-.21,1.56-.4l.15.74Zm-1.1-4.83c-.95,0-1.66.92-1.91,1.83,1.56.02,2.79-.19,2.79-1.09,0-.48-.36-.74-.88-.74Z"/><path class="cls-2" d="m125.03,24.26l-1.27,6.68c-.11.6-.21,1.28-.25,1.84h-.91l.15-1.15h-.02c-.53.82-1.26,1.28-2.09,1.28-1.12,0-1.73-.92-1.73-2.11,0-2.06,1.53-3.95,3.59-3.95.36,0,.77.08,1.02.2l.52-2.78h.99Zm-1.67,3.62c-.2-.14-.53-.25-.95-.25-1.39,0-2.47,1.48-2.47,3.02,0,.7.24,1.43,1.09,1.43.76,0,1.69-.87,1.94-2.18l.39-2.03Z"/><path class="cls-2" d="m129.9,24.26l-.77,3.76h.02c.52-.77,1.26-1.18,2.04-1.18,1.27,0,1.76,1.05,1.76,2.08,0,1.79-1.29,3.99-3.61,3.99-1.02,0-1.79-.43-1.79-1.5,0-.28.05-.62.1-.9l1.25-6.25h1Zm-1.26,6.27c-.04.2-.08.43-.07.73,0,.55.32.86.94.86,1.5,0,2.41-1.78,2.41-3.07,0-.72-.31-1.38-1.11-1.38-.86,0-1.75.89-2.04,2.25l-.13.62Z"/><path class="cls-2" d="m134.75,26.98l.57,3.12c.13.67.2,1.1.26,1.53h.03c.15-.37.32-.78.62-1.42l1.49-3.23h1.06l-2.18,4.41c-.62,1.26-1.21,2.28-2,3.05-.65.65-1.36.93-1.69,1l-.24-.85c.25-.09.67-.25,1.06-.56.39-.3.81-.77,1.12-1.34.05-.1.05-.16.03-.26l-1.16-5.45h1.03Z"/><path class="cls-2" d="m142.62,32.78l-1-8.08h1.02l.59,5.18c.09.83.14,1.3.15,1.83h.03c.2-.5.45-1.1.89-1.95l2.57-5.05h1.1l-4.25,8.08h-1.1Z"/><path class="cls-2" d="m147.16,32.78l1.11-5.8h.99l-1.11,5.8h-.99Zm1.29-7.42c0-.38.29-.67.65-.67s.59.26.59.62c-.01.39-.29.67-.67.67-.35,0-.58-.27-.57-.62Z"/><path class="cls-2" d="m153.67,32.78c0-.35.05-.9.13-1.5h-.03c-.63,1.2-1.43,1.63-2.25,1.63-1.03,0-1.67-.82-1.67-1.92,0-2.02,1.49-4.15,4.01-4.15.56,0,1.16.1,1.57.22l-.59,3.02c-.19,1.01-.27,2.05-.25,2.69h-.93Zm.65-5.06c-.14-.04-.36-.08-.69-.08-1.5,0-2.73,1.56-2.73,3.18,0,.65.22,1.28.99,1.28.83,0,1.81-1.08,2.1-2.62l.34-1.75Z"/><path class="cls-2" d="m161.08,25.56h-2.36l.17-.86h5.72l-.17.86h-2.37l-1.37,7.22h-.99l1.37-7.22Z"/><path class="cls-2" d="m163.41,32.78l.71-3.74c.14-.76.23-1.53.29-2.06h.88c-.05.4-.09.81-.16,1.26h.03c.38-.79,1-1.39,1.78-1.39.09,0,.21,0,.28.02l-.19.98c-.07-.01-.16-.02-.27-.02-.86,0-1.63,1.04-1.88,2.39l-.48,2.56h-.99Z"/><path class="cls-2" d="m170.7,32.78c0-.35.05-.9.13-1.5h-.03c-.63,1.2-1.43,1.63-2.25,1.63-1.03,0-1.67-.82-1.67-1.92,0-2.02,1.49-4.15,4.01-4.15.56,0,1.16.1,1.57.22l-.59,3.02c-.19,1.01-.27,2.05-.25,2.69h-.93Zm.65-5.06c-.14-.04-.36-.08-.69-.08-1.5,0-2.73,1.56-2.73,3.18,0,.65.22,1.28.99,1.28.83,0,1.81-1.08,2.1-2.62l.34-1.75Z"/><path class="cls-2" d="m179.24,24.26l-1.27,6.68c-.11.6-.21,1.28-.25,1.84h-.91l.15-1.15h-.02c-.53.82-1.26,1.28-2.09,1.28-1.12,0-1.73-.92-1.73-2.11,0-2.06,1.53-3.95,3.59-3.95.36,0,.77.08,1.02.2l.52-2.78h.99Zm-1.67,3.62c-.2-.14-.53-.25-.95-.25-1.39,0-2.47,1.48-2.47,3.02,0,.7.24,1.43,1.09,1.43.76,0,1.69-.87,1.94-2.18l.39-2.03Z"/><path class="cls-2" d="m179.33,32.78l1.11-5.8h.99l-1.11,5.8h-.99Zm1.29-7.42c0-.38.29-.67.65-.67s.59.26.59.62c-.01.39-.29.67-.67.67-.35,0-.58-.27-.57-.62Z"/><path class="cls-2" d="m182.02,32.78l.78-4.11c.13-.65.21-1.21.27-1.69h.89l-.15,1.14h.02c.52-.82,1.3-1.27,2.15-1.27.69,0,1.47.4,1.47,1.61,0,.26-.05.63-.1.94l-.64,3.39h-.99l.63-3.35c.04-.23.08-.5.08-.74,0-.58-.22-1.01-.91-1.01s-1.72.85-1.98,2.28l-.52,2.82h-.99Z"/><path class="cls-2" d="m188.41,34.09c.35.22.93.38,1.54.38.98,0,1.74-.5,2.09-2.07l.19-.87h-.03c-.51.83-1.21,1.23-2.02,1.23-1.17,0-1.77-.98-1.77-2.01,0-1.97,1.44-3.92,3.68-3.92.67,0,1.41.19,1.86.4l-.89,4.79c-.23,1.23-.57,2.08-1.17,2.6-.58.5-1.36.64-2.03.64-.71,0-1.38-.16-1.74-.41l.28-.78Zm4.46-6.26c-.18-.09-.54-.2-.96-.2-1.45,0-2.45,1.52-2.46,2.95,0,.64.23,1.39,1.11,1.39s1.72-1.08,1.94-2.21l.37-1.93Z"/></g></g></svg>